<svg width="38" height="50" viewBox="0 0 38 50" fill="none" xmlns="http://www.w3.org/2000/svg">
<path d="M18.75 0C8.39531 0 0 8.39531 0 18.75C0 22.8273 1.33672 26.5688 3.55859 29.6328C3.59844 29.7063 3.60469 29.7883 3.65 29.8586L16.15 48.6086C16.7297 49.4781 17.7062 50 18.75 50C19.7938 50 20.7703 49.4781 21.35 48.6086L33.85 29.8586C33.8961 29.7883 33.9016 29.7063 33.9414 29.6328C36.1633 26.5688 37.5 22.8273 37.5 18.75C37.5 8.39531 29.1047 0 18.75 0ZM18.75 25C15.2984 25 12.5 22.2016 12.5 18.75C12.5 15.2984 15.2984 12.5 18.75 12.5C22.2016 12.5 25 15.2984 25 18.75C25 22.2016 22.2016 25 18.75 25Z" fill="#505050"/>
</svg>
