<svg width="45" height="45" viewBox="0 0 45 45" fill="none" xmlns="http://www.w3.org/2000/svg">
<path d="M31.3905 28.8692L30.2517 30.068C30.2517 30.068 27.5452 32.9175 20.1577 25.1397C12.7703 17.3621 15.4767 14.5127 15.4767 14.5127L16.1938 13.7578C17.9602 11.8981 18.1267 8.91243 16.5856 6.73275L13.4331 2.27403C11.5257 -0.423749 7.83989 -0.780125 5.65362 1.5216L1.72962 5.65285C0.64557 6.79415 -0.0808795 8.27363 0.0072205 9.91485C0.232596 14.1137 2.02677 23.1475 12.0384 33.688C22.6552 44.8655 32.617 45.3097 36.6907 44.9078C37.9792 44.7805 39.0997 44.0858 40.0027 43.135L43.5542 39.396C45.9515 36.8722 45.2755 32.5455 42.2082 30.78L37.432 28.0308C35.418 26.8715 32.9645 27.212 31.3905 28.8692Z" fill="#505050"/>
</svg>
